<svg id="Capa_1" enable-background="new 0 0 512 512" height="512" viewBox="0 0 512 512" width="512" xmlns="http://www.w3.org/2000/svg"><g><g><path d="m167.326 179.679h-34.653v-13.927c0-4.412 3.577-7.989 7.989-7.989h18.674c4.412 0 7.989 3.577 7.989 7.989v13.927z" fill="#685e68"/></g><g><path d="m167.324 165.747v13.928h-17.32v-13.928c0-4.41-3.582-7.982-7.992-7.982h17.32c4.42.001 7.992 3.573 7.992 7.982z" fill="#554e56"/></g><g><path d="m256 7.481c-137.255 0-248.519 111.264-248.519 248.519s111.264 248.519 248.519 248.519 248.519-111.264 248.519-248.519-111.264-248.519-248.519-248.519zm-206.625 248.521c-.001-114.017 92.61-206.628 206.627-206.627 46.268 0 88.982 15.211 123.419 40.906 4.487 3.348 4.922 9.92.964 13.878l-276.226 276.225c-3.958 3.958-10.531 3.523-13.878-.964-25.696-34.436-40.906-77.151-40.906-123.418zm206.624 206.624c-46.268 0-88.982-15.211-123.419-40.906-4.487-3.348-4.922-9.92-.964-13.878l276.225-276.225c3.958-3.958 10.531-3.523 13.878.964 25.696 34.436 40.906 77.151 40.906 123.418.001 114.017-92.609 206.627-206.626 206.627z" fill="#f47c7c"/></g><g><path d="m302.144 11.761c104.839 29.153 181.773 125.312 181.773 239.45 0 137.255-111.264 248.519-248.519 248.519-15.764 0-31.178-1.467-46.124-4.28 21.231 5.916 43.61 9.069 66.727 9.069 137.255 0 248.519-111.264 248.519-248.519-.001-121.481-87.171-222.609-202.376-244.239z" fill="#ee6161"/></g><g><path d="m321.621 177.649-16.706-39.661c-.583-1.385-1.94-2.285-3.442-2.285h-45.473-45.473c-1.503 0-2.859.9-3.442 2.285l-16.706 39.661c-.583 1.385-1.94 2.285-3.442 2.285h-66.115c-5.324 0-9.64 4.316-9.64 9.64v154.35c0 5.324 4.316 9.64 9.64 9.64h270.356c5.324 0 9.64-4.316 9.64-9.64v-154.35c0-5.324-4.316-9.64-9.64-9.64h-66.115c-1.502.001-2.859-.9-3.442-2.285z" fill="#918291"/></g><g><path d="m325.061 179.935h-19.954c-1.497 0-2.854-.898-3.442-2.285l-16.702-39.659c-.589-1.387-1.945-2.285-3.442-2.285h19.954c1.497 0 2.853.898 3.442 2.285l16.702 39.659c.589 1.387 1.946 2.285 3.442 2.285z" fill="#7a6d79"/></g><g><path d="m400.817 189.571v154.349c0 5.305-4.341 9.646-9.646 9.646h-14.039c2.055 0 3.731-1.676 3.731-3.741v-166.159c0-2.055-1.676-3.731-3.731-3.731h14.049c5.3 0 9.636 4.336 9.636 9.636z" fill="#7a6d79"/></g><g><circle cx="256" cy="261.791" fill="#dcf5f8" r="61.635"/></g><g><path d="m317.638 261.787c0 34.042-27.597 61.638-61.638 61.638-14.507 0-27.846-5.018-38.372-13.409 6.675 2.474 13.888 3.831 21.421 3.831 34.042 0 61.638-27.597 61.638-61.638 0-19.515-9.069-36.905-23.227-48.209 23.467 8.709 40.178 31.298 40.178 57.787z" fill="#a6e7f0"/></g><g><path d="m365.428 227.771h-20.995c-5.076 0-9.192-4.115-9.192-9.192v-5.837c0-5.076 4.115-9.192 9.192-9.192h20.995c5.076 0 9.192 4.115 9.192 9.192v5.837c0 5.076-4.116 9.192-9.192 9.192z" fill="#fdf6ec"/></g><g><path d="m374.618 212.74v5.836c0 5.078-4.111 9.199-9.189 9.199h-14.307c5.078 0 9.199-4.12 9.199-9.199v-5.836c0-5.078-4.121-9.189-9.199-9.189h14.307c5.078 0 9.189 4.11 9.189 9.189z" fill="#fcead0"/></g><g><path d="m463.179 105.595c-2.43-3.342-7.108-4.082-10.452-1.651-3.342 2.43-4.082 7.11-1.651 10.453 30.066 41.346 45.958 90.312 45.958 141.603 0 64.382-25.073 124.911-70.598 170.437-45.525 45.525-106.054 70.597-170.436 70.597s-124.911-25.073-170.437-70.598c-45.525-45.525-70.597-106.054-70.597-170.436s25.072-124.911 70.597-170.437c45.526-45.525 106.055-70.597 170.437-70.597 33.301 0 65.543 6.661 95.831 19.8 29.262 12.693 55.381 30.82 77.63 53.876 2.869 2.973 7.606 3.059 10.58.188 2.974-2.87 3.058-7.607.188-10.58-23.625-24.482-51.363-43.732-82.443-57.213-32.178-13.96-66.425-21.037-101.786-21.037-68.38 0-132.667 26.628-181.019 74.981-48.353 48.352-74.981 112.639-74.981 181.019s26.628 132.667 74.981 181.019c48.352 48.353 112.639 74.981 181.019 74.981s132.667-26.628 181.019-74.981c48.353-48.352 74.981-112.639 74.981-181.019 0-54.474-16.882-106.483-48.821-150.405z"/><path d="m256 192.673c-38.112 0-69.118 31.007-69.118 69.119s31.006 69.117 69.118 69.117 69.118-31.006 69.118-69.117c0-38.112-31.006-69.119-69.118-69.119zm0 123.27c-29.859 0-54.152-24.293-54.152-54.152 0-29.86 24.293-54.153 54.152-54.153s54.152 24.293 54.152 54.153c0 29.859-24.293 54.152-54.152 54.152z"/><path d="m121.468 415.586c.349 4.825 2.768 9.246 6.636 12.132 37.171 27.729 81.395 42.387 127.894 42.387h.002c57.139 0 110.898-22.285 151.357-62.745 40.463-40.462 62.747-94.215 62.748-151.358 0-46.5-14.658-90.726-42.387-127.898-2.886-3.868-7.307-6.287-12.132-6.636-4.838-.351-9.598 1.418-13.035 4.854l-46.129 46.129h-28.87l-1.445-3.429 59.572-59.571c3.436-3.436 5.205-8.188 4.854-13.036-.349-4.825-2.768-9.246-6.636-12.132-37.172-27.73-81.397-42.388-127.896-42.388-.004 0 .002 0-.002 0-57.139 0-110.898 22.286-151.358 62.747-40.463 40.463-62.746 94.217-62.746 151.36 0 46.499 14.658 90.723 42.387 127.894 2.886 3.868 7.307 6.287 12.132 6.636.404.029.808.044 1.211.044 4.42 0 8.674-1.749 11.824-4.898l24.631-24.631h33.745l-41.503 41.503c-3.435 3.437-5.205 8.187-4.854 13.036zm-.646-69.505c-1.19 0-2.157-.967-2.157-2.157v-29.826c0-4.133-3.35-7.483-7.483-7.483s-7.483 3.35-7.483 7.483v29.826c0 7.108 4.356 13.215 10.537 15.802l-15.369 15.369c-.494.496-1.068.538-1.373.51-.35-.025-.845-.16-1.216-.658-25.788-34.566-39.417-75.697-39.417-118.945 0-53.146 20.727-103.142 58.363-140.778 37.635-37.636 87.632-58.363 140.777-58.363 43.249 0 84.38 13.63 118.947 39.417.498.371.632.866.658 1.217.022.3-.016.879-.51 1.373l-55.262 55.261-8.023-19.047c-1.757-4.168-5.815-6.861-10.338-6.861h-90.945c-4.523 0-8.581 2.693-10.339 6.863l-15.739 37.367h-9.641v-6.699c0-8.531-6.941-15.472-15.472-15.472h-18.674c-8.531 0-15.472 6.941-15.472 15.472v6.699h-4.368c-9.441 0-17.123 7.682-17.123 17.123v89.626c0 4.133 3.35 7.483 7.483 7.483s7.483-3.35 7.483-7.483v-89.625c0-1.19.968-2.157 2.157-2.157h66.115c4.523 0 8.581-2.693 10.338-6.863l15.739-37.367h85.971l15.74 37.369c1.757 4.168 5.815 6.861 10.337 6.861h66.115c1.19 0 2.157.968 2.157 2.157v154.35c0 1.19-.968 2.157-2.157 2.157h-270.356zm39.021-180.329v6.444h-19.687v-6.444c0-.28.227-.507.507-.507h18.674c.279 0 .506.228.506.507zm-22.938 247.381 52.086-52.086h202.186c9.441 0 17.123-7.682 17.123-17.123v-154.35c0-9.441-7.682-17.123-17.123-17.123h-13.591l35.546-35.546c.431-.432.926-.515 1.244-.515.047 0 .09.002.129.005.35.025.845.16 1.216.658 25.787 34.567 39.417 75.699 39.417 118.949 0 53.146-20.728 103.141-58.364 140.776s-87.632 58.361-140.777 58.361c-43.248 0-84.379-13.63-118.946-39.417-.498-.371-.632-.866-.658-1.216-.021-.301.017-.879.512-1.373z"/><path d="m365.428 196.067h-20.996c-9.195 0-16.675 7.48-16.675 16.675v5.837c0 9.195 7.48 16.675 16.675 16.675h20.996c9.195 0 16.675-7.48 16.675-16.675v-5.837c0-9.195-7.48-16.675-16.675-16.675zm1.709 22.512c0 .942-.767 1.709-1.709 1.709h-20.996c-.942 0-1.709-.767-1.709-1.709v-5.837c0-.942.767-1.709 1.709-1.709h20.996c.942 0 1.709.767 1.709 1.709z"/></g></g></svg>