<svg id="Capa_1" enable-background="new 0 0 512 512" height="512" viewBox="0 0 512 512" width="512" xmlns="http://www.w3.org/2000/svg"><g><path d="m494.949 100h-35.43l50.048-76.812c3.005-4.611 3.243-10.497.62-15.336-2.622-4.838-7.684-7.852-13.187-7.852h-66.711c-8.284 0-15 6.716-15 15s6.716 15 15 15h39.034l-50.048 76.812c-3.005 4.611-3.243 10.497-.62 15.336 2.622 4.839 7.684 7.853 13.188 7.853h63.107c8.284 0 15-6.716 15-15s-6.717-15.001-15.001-15.001z"/><path d="m400.188 67.853c-2.623-4.839-7.685-7.853-13.188-7.853h-46.698c-8.284 0-15 6.716-15 15s6.716 15 15 15h19.021l-30.501 46.812c-3.005 4.611-3.243 10.497-.62 15.336 2.622 4.839 7.684 7.853 13.188 7.853h44.175c8.284 0 15-6.716 15-15s-6.716-15-15-15h-16.498l30.501-46.812c3.004-4.612 3.242-10.498.62-15.336z"/><path d="m190 132c-104.766 0-190 85.233-190 190s85.234 190 190 190 190-85.233 190-190-85.234-190-190-190zm0 350c-88.224 0-160-71.775-160-160s71.776-160 160-160 160 71.775 160 160-71.776 160-160 160z"/><path d="m167.145 275.804c4.862-6.708 3.366-16.087-3.342-20.948-6.708-4.863-16.085-3.367-20.948 3.341-6.452 8.901-14.569 13.803-22.855 13.803s-16.403-4.902-22.855-13.804c-4.863-6.708-14.242-8.204-20.948-3.341-6.708 4.861-8.204 14.24-3.342 20.948 12.068 16.649 29.251 26.197 47.145 26.197s35.077-9.548 47.145-26.196z"/><path d="m282.855 258.196c-6.452 8.902-14.569 13.804-22.855 13.804s-16.403-4.902-22.855-13.804c-4.863-6.708-14.242-8.204-20.948-3.341-6.708 4.861-8.204 14.24-3.342 20.948 12.068 16.649 29.251 26.197 47.145 26.197s35.077-9.548 47.145-26.196c4.862-6.708 3.366-16.087-3.342-20.948-6.706-4.864-16.086-3.368-20.948 3.34z"/><path d="m190 337c-12.664 0-24.769 6.457-33.213 17.716-7.601 10.134-11.787 23.375-11.787 37.284s4.186 27.15 11.787 37.284c8.444 11.259 20.549 17.716 33.213 17.716s24.769-6.457 33.213-17.716c7.601-10.134 11.787-23.375 11.787-37.284s-4.186-27.15-11.787-37.284c-8.444-11.259-20.549-17.716-33.213-17.716zm0 80c-7.081 0-15-10.691-15-25s7.919-25 15-25 15 10.691 15 25-7.919 25-15 25z"/></g></svg>