<svg id="Layer_1" enable-background="new 0 0 512 512" height="512" viewBox="0 0 512 512" width="512" xmlns="http://www.w3.org/2000/svg"><g><path d="m432.731 222.8c-8.284 0-15-6.716-15-15v-16.066c0-89.181-72.554-161.734-161.733-161.734-89.18 0-161.733 72.553-161.733 161.733v16.067c0 8.284-6.716 15-15 15s-15-6.716-15-15v-16.066c-.001-105.723 86.011-191.734 191.733-191.734s191.733 86.011 191.733 191.733v16.067c0 8.284-6.716 15-15 15z" fill="#465a64"/><path d="m417.731 191.733v16.067c0 8.284 6.716 15 15 15s15-6.716 15-15v-16.066c0-105.723-86.012-191.734-191.733-191.734v30c89.179 0 161.733 72.553 161.733 161.733z" fill="#283741"/><path d="m400.597 303.133h-32.133c-8.284 0-15-6.716-15-15v-112.466c0-8.284 6.716-15 15-15h32.133c25.989 0 47.134 21.144 47.134 47.133v48.2c0 25.989-21.144 47.133-47.134 47.133z" fill="#0a141e"/><path d="m143.531 303.133h-32.133c-25.989 0-47.133-21.144-47.133-47.133v-48.2c0-25.989 21.144-47.133 47.133-47.133h32.133c8.284 0 15 6.716 15 15v112.467c0 8.283-6.716 14.999-15 14.999z" fill="#283741"/><path d="m477.344 488.676c-12.112-18.169-29.081-32.392-49.068-41.13l-102-44.626c-5.654-2.473-12.252-1.23-16.618 3.136l-53.659 53.658-53.657-53.656c-4.366-4.366-10.964-5.609-16.618-3.136l-102 44.626c-19.987 8.738-36.956 22.961-49.068 41.13-4.596 6.893-2.732 16.206 4.16 20.801 2.557 1.705 5.447 2.521 8.307 2.521l417.755-.002c2.859 0 5.75-.816 8.307-2.521 6.892-4.595 8.755-13.908 4.159-20.801z" fill="#00a5ff"/><path d="m473.184 509.479c6.893-4.595 8.756-13.908 4.16-20.801-12.112-18.169-29.081-32.392-49.068-41.13l-102-44.626c-5.654-2.473-12.252-1.23-16.618 3.136l-53.659 53.658-.001-.001v52.285l208.88-.001c2.859 0 5.75-.816 8.306-2.52z" fill="#0064ff"/><path d="m374.477 424.012-48.2-21.088c-5.658-2.475-12.252-1.23-16.619 3.136l-53.66 53.659-53.66-53.659c-4.366-4.366-10.96-5.611-16.619-3.136l-48.2 21.088c-6.809 2.979-10.41 10.495-8.465 17.668l16.067 59.244c2.017 7.438 9.342 12.137 16.943 10.87l93.934-15.656 93.934 15.656c7.602 1.267 14.926-3.432 16.943-10.87l16.067-59.244c1.945-7.173-1.656-14.689-8.465-17.668z" fill="#00e6ff"/><path d="m349.932 511.794c7.602 1.267 14.926-3.432 16.943-10.87l16.067-59.244c1.945-7.173-1.656-14.689-8.465-17.668l-48.2-21.088c-5.658-2.475-12.252-1.23-16.619 3.136l-53.66 53.659v36.419z" fill="#00a5ff"/><path d="m255.998 495.933c-3.839 0-7.678-1.464-10.606-4.394l-64.267-64.267c-2.813-2.813-4.394-6.628-4.394-10.606v-40.166c0-8.284 6.716-15 15-15h128.533c8.284 0 15 6.716 15 15v40.167c0 3.978-1.58 7.793-4.394 10.606l-64.267 64.267c-2.927 2.929-6.766 4.393-10.605 4.393z" fill="#e19682"/><path d="m330.871 427.273c2.813-2.813 4.394-6.628 4.394-10.606v-40.167c0-8.284-6.716-15-15-15h-64.267v134.433c3.839 0 7.678-1.464 10.606-4.394z" fill="#c36e64"/><path d="m255.998 64.267c-70.518 0-127.467 57.084-127.467 127.467v112.466c0 5.199 2.692 10.027 7.114 12.76s9.945 2.981 14.594.657l64.268-32.134c25.98-12.993 57.001-12.993 82.983.001l64.267 32.133c4.645 2.322 10.167 2.079 14.594-.657 4.422-2.733 7.114-7.561 7.114-12.76v-112.467c0-70.285-57.182-127.466-127.467-127.466z" fill="#ffbea0"/><path d="m297.49 285.483 64.267 32.133c4.645 2.322 10.167 2.079 14.594-.657 4.422-2.733 7.114-7.561 7.114-12.76v-112.466c0-70.285-57.182-127.467-127.467-127.467v211.471c14.25.001 28.501 3.249 41.492 9.746z" fill="#e19682"/><circle clip-rule="evenodd" cx="207.798" cy="207.8" fill="#283741" fill-rule="evenodd" r="15"/><circle clip-rule="evenodd" cx="304.198" cy="207.8" fill="#0a141e" fill-rule="evenodd" r="15"/><path d="m255.997 406.582c-24.377 0-48.753-5.555-70.974-16.665-22.36-11.182-56.492-35.595-56.492-85.717 0-5.682 3.21-10.875 8.292-13.417l64.267-32.133c34.382-17.194 75.436-17.194 109.818.001l64.265 32.132c5.082 2.541 8.292 7.735 8.292 13.417 0 50.18-34.208 74.572-56.491 85.716-22.222 11.111-46.6 16.666-70.977 16.666z" fill="#f0f5fa"/><path d="m383.465 304.2c0-5.682-3.21-10.875-8.292-13.417l-64.265-32.132c-17.191-8.598-36.05-12.896-54.91-12.896v160.827c24.377 0 48.755-5.555 70.976-16.666 22.283-11.144 56.491-35.535 56.491-85.716z" fill="#dfe3e9"/><path d="m400.597 367.4h-80.333c-8.284 0-15-6.716-15-15s6.716-15 15-15h80.333c9.596 0 17.134-7.807 17.134-17.133v-64.267c0-8.284 6.716-15 15-15s15 6.716 15 15v64.267c0 25.743-20.796 47.133-47.134 47.133z" fill="#465a64"/></g></svg>